<!DOCTYPE svg PUBLIC "-//W3C//DTD SVG 1.1//EN" "http://www.w3.org/Graphics/SVG/1.1/DTD/svg11.dtd">
<!-- Uploaded to: SVG Repo, www.svgrepo.com, Transformed by: SVG Repo Mixer Tools -->
<svg fill="#9c9c9c" width="800px" height="800px" viewBox="0 0 64 64" enable-background="new 0 0 64 64" version="1.1" xml:space="preserve" xmlns="http://www.w3.org/2000/svg" xmlns:xlink="http://www.w3.org/1999/xlink" stroke="#9c9c9c">
<g id="SVGRepo_bgCarrier" stroke-width="0"/>
<g id="SVGRepo_tracerCarrier" stroke-linecap="round" stroke-linejoin="round"/>
<g id="SVGRepo_iconCarrier"> <g id="_x31_-smartphone"/> <g id="_x32_-smartTV"/> <g id="_x33_-telepon"/> <g id="_x34_-computer"/> <g id="_x35_-kalkulator"/> <g id="_x36_-radio"/> <g id="_x37_-hadset"/> <g id="_x38_-usbflashdisk"/> <g id="_x39_-camera"/> <g id="_x31_0-printer"/> <g id="_x31_1-powerbank"/> <g id="_x31_2-kulkas"/> <g id="_x31_3-modem"/> <g id="_x31_4-tablet"/> <g id="_x31_5-gamebot"/> <g id="_x31_6-wasing_machine"/> <g id="_x31_7-handdryer"/> <g id="_x31_8-blender"/> <g id="_x31_9-controller"> <g> <path d="M55,17h-2v-4H43v4H33V4h-2v13H21v-4H11v4H9c-3.309,0-6,2.691-6,6v32c0,3.309,2.691,6,6,6h6c3.309,0,6-2.691,6-6v-4.5 c0-1.93,1.794-3.5,4-3.5h14c2.206,0,4,1.57,4,3.5V55c0,3.309,2.691,6,6,6h6c3.309,0,6-2.691,6-6V23C61,19.691,58.309,17,55,17z M45,15h6v2h-6V15z M13,15h6v2h-6V15z M59,55c0,2.206-1.794,4-4,4h-6c-2.206,0-4-1.794-4-4v-4.5c0-3.032-2.691-5.5-6-5.5H25 c-3.309,0-6,2.468-6,5.5V55c0,2.206-1.794,4-4,4H9c-2.206,0-4-1.794-4-4V23c0-2.206,1.794-4,4-4h46c2.206,0,4,1.794,4,4V55z"/> <path d="M46.167,29c2.022,0,3.667-1.645,3.667-3.666c0-2.022-1.645-3.667-3.667-3.667S42.5,23.312,42.5,25.334 C42.5,27.355,44.145,29,46.167,29z M46.167,23.667c0.919,0,1.667,0.748,1.667,1.667S47.086,27,46.167,27S44.5,26.253,44.5,25.334 S45.248,23.667,46.167,23.667z"/> <path d="M46.167,35.667c-2.022,0-3.667,1.645-3.667,3.666c0,2.022,1.645,3.667,3.667,3.667s3.667-1.645,3.667-3.667 C49.834,37.312,48.189,35.667,46.167,35.667z M46.167,41c-0.919,0-1.667-0.748-1.667-1.667s0.748-1.666,1.667-1.666 s1.667,0.747,1.667,1.666S47.086,41,46.167,41z"/> <path d="M44,31.666C44,29.645,42.355,28,40.333,28s-3.667,1.645-3.667,3.666c0,2.022,1.645,3.667,3.667,3.667S44,33.688,44,31.666 z M40.333,33.333c-0.919,0-1.667-0.748-1.667-1.667S39.414,30,40.333,30S42,30.747,42,31.666S41.252,33.333,40.333,33.333z"/> <path d="M52.333,28c-2.022,0-3.667,1.645-3.667,3.666c0,2.022,1.645,3.667,3.667,3.667S56,33.688,56,31.666 C56,29.645,54.355,28,52.333,28z M52.333,33.333c-0.919,0-1.667-0.748-1.667-1.667S51.414,30,52.333,30S54,30.747,54,31.666 S53.252,33.333,52.333,33.333z"/> <rect height="19" width="2" x="13" y="22.667"/> <rect height="2" width="6" x="17" y="31.167"/> <rect height="2" width="6" x="6" y="31.167"/> </g> </g> <g id="_x32_0-michrophone"/> <g id="_x32_1-lamp"/> </g>
</svg>